HIERARCHY
ROOT Hips
{
	OFFSET -412.092468 -576.953125 89.101967
	CHANNELS 6 Xposition Yposition Zposition Zrotation Yrotation Xrotation
	JOINT Spine
	{
		OFFSET 0.000000 2.080078 8.814247
		CHANNELS 6 Xposition Yposition Zposition Zrotation Yrotation Xrotation
		JOINT Spine1
		{
			OFFSET 0.000000 0.000000 8.844139
			CHANNELS 6 Xposition Yposition Zposition Zrotation Yrotation Xrotation
			JOINT Spine2
			{
				OFFSET 0.000000 0.000000 11.682266
				CHANNELS 6 Xposition Yposition Zposition Zrotation Yrotation Xrotation
				JOINT Spine3
				{
					OFFSET 0.000000 0.000000 11.746696
					CHANNELS 6 Xposition Yposition Zposition Zrotation Yrotation Xrotation
					JOINT Neck
					{
						OFFSET 0.000000 0.000000 17.658264
						CHANNELS 6 Xposition Yposition Zposition Zrotation Yrotation Xrotation
						JOINT Neck1
						{
							OFFSET 0.000000 0.000000 5.101517
							CHANNELS 6 Xposition Yposition Zposition Zrotation Yrotation Xrotation
							JOINT Head
							{
								OFFSET 0.000000 0.000000 5.101517
								CHANNELS 6 Xposition Yposition Zposition Zrotation Yrotation Xrotation
								JOINT HeadEnd
								{
									OFFSET 0.000000 0.000000 11.655090
									CHANNELS 6 Xposition Yposition Zposition Zrotation Yrotation Xrotation
									End Site
									{
										OFFSET 0.000000 0.000000 0.100006
									}
								}
							}
						}
					}
					JOINT RightShoulder
					{
						OFFSET -2.625397 0.000000 11.175217
						CHANNELS 6 Xposition Yposition Zposition Zrotation Yrotation Xrotation
						JOINT RightArm
						{
							OFFSET 0.000000 0.000000 10.434708
							CHANNELS 6 Xposition Yposition Zposition Zrotation Yrotation Xrotation
							JOINT RightForeArm
							{
								OFFSET 0.000000 0.000000 29.628418
								CHANNELS 6 Xposition Yposition Zposition Zrotation Yrotation Xrotation
								JOINT RightHand
								{
									OFFSET 0.000000 0.000000 22.857605
									CHANNELS 6 Xposition Yposition Zposition Zrotation Yrotation Xrotation
									JOINT RightHandThumb1
									{
										OFFSET -2.867310 -2.944275 3.959564
										CHANNELS 6 Xposition Yposition Zposition Zrotation Yrotation Xrotation
										JOINT RightHandThumb2
										{
											OFFSET 0.000000 0.000000 3.350403
											CHANNELS 6 Xposition Yposition Zposition Zrotation Yrotation Xrotation
											JOINT RightHandThumb3
											{
												OFFSET 0.000000 0.000000 3.756516
												CHANNELS 6 Xposition Yposition Zposition Zrotation Yrotation Xrotation
												JOINT RightHandThumb4
												{
													OFFSET 0.000000 0.000000 3.147339
													CHANNELS 6 Xposition Yposition Zposition Zrotation Yrotation Xrotation
													End Site
													{
														OFFSET 0.000000 0.000000 0.100006
													}
												}
											}
										}
									}
									JOINT RightHandIndex1
									{
										OFFSET -0.086761 -2.345276 10.030899
										CHANNELS 6 Xposition Yposition Zposition Zrotation Yrotation Xrotation
										JOINT RightHandIndex2
										{
											OFFSET 0.000000 0.000000 4.061096
											CHANNELS 6 Xposition Yposition Zposition Zrotation Yrotation Xrotation
											JOINT RightHandIndex3
											{
												OFFSET 0.000000 0.000000 3.248871
												CHANNELS 6 Xposition Yposition Zposition Zrotation Yrotation Xrotation
												JOINT RightHandIndex4
												{
													OFFSET 0.000000 0.000000 2.639709
													CHANNELS 6 Xposition Yposition Zposition Zrotation Yrotation Xrotation
													End Site
													{
														OFFSET 0.000000 0.000000 0.100006
													}
												}
											}
										}
									}
									JOINT RightHandMiddle1
									{
										OFFSET 0.104095 -0.006775 9.502945
										CHANNELS 6 Xposition Yposition Zposition Zrotation Yrotation Xrotation
										JOINT RightHandMiddle2
										{
											OFFSET 0.000000 0.000000 4.568726
											CHANNELS 6 Xposition Yposition Zposition Zrotation Yrotation Xrotation
											JOINT RightHandMiddle3
											{
												OFFSET 0.000000 0.000000 3.654984
												CHANNELS 6 Xposition Yposition Zposition Zrotation Yrotation Xrotation
												JOINT RightHandMiddle4
												{
													OFFSET 0.000000 0.000000 2.741241
													CHANNELS 6 Xposition Yposition Zposition Zrotation Yrotation Xrotation
													End Site
													{
														OFFSET 0.000000 0.000000 0.100006
													}
												}
											}
										}
									}
									JOINT RightHandRing1
									{
										OFFSET 0.086761 2.267456 8.921707
										CHANNELS 6 Xposition Yposition Zposition Zrotation Yrotation Xrotation
										JOINT RightHandRing2
										{
											OFFSET 0.000000 0.000000 4.061096
											CHANNELS 6 Xposition Yposition Zposition Zrotation Yrotation Xrotation
											JOINT RightHandRing3
											{
												OFFSET 0.000000 0.000000 3.654984
												CHANNELS 6 Xposition Yposition Zposition Zrotation Yrotation Xrotation
												JOINT RightHandRing4
												{
													OFFSET 0.000000 0.000000 2.741241
													CHANNELS 6 Xposition Yposition Zposition Zrotation Yrotation Xrotation
													End Site
													{
														OFFSET 0.000000 0.000000 0.100006
													}
												}
											}
										}
									}
									JOINT RightHandPinky1
									{
										OFFSET -0.173492 4.467224 7.976990
										CHANNELS 6 Xposition Yposition Zposition Zrotation Yrotation Xrotation
										JOINT RightHandPinky2
										{
											OFFSET 0.000000 0.000000 3.350403
											CHANNELS 6 Xposition Yposition Zposition Zrotation Yrotation Xrotation
											JOINT RightHandPinky3
											{
												OFFSET 0.000000 0.000000 2.842758
												CHANNELS 6 Xposition Yposition Zposition Zrotation Yrotation Xrotation
												JOINT RightHandPinky4
												{
													OFFSET 0.000000 0.000000 2.639709
													CHANNELS 6 Xposition Yposition Zposition Zrotation Yrotation Xrotation
													End Site
													{
														OFFSET 0.000000 0.000000 0.100006
													}
												}
											}
										}
									}
									JOINT RightForeArmEnd
									{
										OFFSET 0.000000 0.000000 0.000000
										CHANNELS 6 Xposition Yposition Zposition Zrotation Yrotation Xrotation
										End Site
										{
											OFFSET 0.000000 0.000000 0.100006
										}
									}
								}
								JOINT RightArmEnd
								{
									OFFSET 0.000000 0.000000 0.000000
									CHANNELS 6 Xposition Yposition Zposition Zrotation Yrotation Xrotation
									End Site
									{
										OFFSET 0.000000 0.000000 0.100006
									}
								}
							}
						}
					}
					JOINT LeftShoulder
					{
						OFFSET 2.625397 0.000000 11.175217
						CHANNELS 6 Xposition Yposition Zposition Zrotation Yrotation Xrotation
						JOINT LeftArm
						{
							OFFSET 0.000000 0.000000 10.813629
							CHANNELS 6 Xposition Yposition Zposition Zrotation Yrotation Xrotation
							JOINT LeftForeArm
							{
								OFFSET 0.000000 0.000000 28.724777
								CHANNELS 6 Xposition Yposition Zposition Zrotation Yrotation Xrotation
								JOINT LeftHand
								{
									OFFSET 0.644379 0.328857 25.716171
									CHANNELS 6 Xposition Yposition Zposition Zrotation Yrotation Xrotation
									JOINT LeftHandThumb1
									{
										OFFSET 2.867310 -2.944275 3.959564
										CHANNELS 6 Xposition Yposition Zposition Zrotation Yrotation Xrotation
										JOINT LeftHandThumb2
										{
											OFFSET 0.000000 0.000000 3.350403
											CHANNELS 6 Xposition Yposition Zposition Zrotation Yrotation Xrotation
											JOINT LeftHandThumb3
											{
												OFFSET 0.000000 0.000000 3.756516
												CHANNELS 6 Xposition Yposition Zposition Zrotation Yrotation Xrotation
												JOINT LeftHandThumb4
												{
													OFFSET 0.000000 0.000000 3.100006
													CHANNELS 6 Xposition Yposition Zposition Zrotation Yrotation Xrotation
													End Site
													{
														OFFSET 0.000000 0.000000 0.100006
													}
												}
											}
										}
									}
									JOINT LeftHandIndex1
									{
										OFFSET 0.086761 -2.345276 10.030899
										CHANNELS 6 Xposition Yposition Zposition Zrotation Yrotation Xrotation
										JOINT LeftHandIndex2
										{
											OFFSET 0.000000 0.000000 4.061096
											CHANNELS 6 Xposition Yposition Zposition Zrotation Yrotation Xrotation
											JOINT LeftHandIndex3
											{
												OFFSET 0.000000 0.000000 3.248871
												CHANNELS 6 Xposition Yposition Zposition Zrotation Yrotation Xrotation
												JOINT LeftHandIndex4
												{
													OFFSET 0.000000 0.000000 2.639709
													CHANNELS 6 Xposition Yposition Zposition Zrotation Yrotation Xrotation
													End Site
													{
														OFFSET 0.000000 0.000000 0.100006
													}
												}
											}
										}
									}
									JOINT LeftHandMiddle1
									{
										OFFSET -0.104095 -0.006775 9.502945
										CHANNELS 6 Xposition Yposition Zposition Zrotation Yrotation Xrotation
										JOINT LeftHandMiddle2
										{
											OFFSET 0.000000 0.000000 4.568726
											CHANNELS 6 Xposition Yposition Zposition Zrotation Yrotation Xrotation
											JOINT LeftHandMiddle3
											{
												OFFSET 0.000000 0.000000 3.654984
												CHANNELS 6 Xposition Yposition Zposition Zrotation Yrotation Xrotation
												JOINT LeftHandMiddle4
												{
													OFFSET 0.000000 0.000000 2.741241
													CHANNELS 6 Xposition Yposition Zposition Zrotation Yrotation Xrotation
													End Site
													{
														OFFSET 0.000000 0.000000 0.100006
													}
												}
											}
										}
									}
									JOINT LeftHandRing1
									{
										OFFSET -0.086761 2.267456 8.921707
										CHANNELS 6 Xposition Yposition Zposition Zrotation Yrotation Xrotation
										JOINT LeftHandRing2
										{
											OFFSET 0.000000 0.000000 4.061096
											CHANNELS 6 Xposition Yposition Zposition Zrotation Yrotation Xrotation
											JOINT LeftHandRing3
											{
												OFFSET 0.000000 0.000000 3.654984
												CHANNELS 6 Xposition Yposition Zposition Zrotation Yrotation Xrotation
												JOINT LeftHandRing4
												{
													OFFSET 0.000000 0.000000 2.741241
													CHANNELS 6 Xposition Yposition Zposition Zrotation Yrotation Xrotation
													End Site
													{
														OFFSET 0.000000 0.000000 0.100006
													}
												}
											}
										}
									}
									JOINT LeftHandPinky1
									{
										OFFSET 0.173492 4.467224 7.976990
										CHANNELS 6 Xposition Yposition Zposition Zrotation Yrotation Xrotation
										JOINT LeftHandPinky2
										{
											OFFSET 0.000000 0.000000 3.350403
											CHANNELS 6 Xposition Yposition Zposition Zrotation Yrotation Xrotation
											JOINT LeftHandPinky3
											{
												OFFSET 0.000000 0.000000 2.842758
												CHANNELS 6 Xposition Yposition Zposition Zrotation Yrotation Xrotation
												JOINT LeftHandPinky4
												{
													OFFSET 0.000000 0.000000 2.639709
													CHANNELS 6 Xposition Yposition Zposition Zrotation Yrotation Xrotation
													End Site
													{
														OFFSET 0.000000 0.000000 0.100006
													}
												}
											}
										}
									}
									JOINT LeftForeArmEnd
									{
										OFFSET 0.000000 0.000000 0.000000
										CHANNELS 6 Xposition Yposition Zposition Zrotation Yrotation Xrotation
										End Site
										{
											OFFSET 0.000000 0.000000 0.100006
										}
									}
								}
								JOINT LeftArmEnd
								{
									OFFSET 0.000000 0.000000 0.000000
									CHANNELS 6 Xposition Yposition Zposition Zrotation Yrotation Xrotation
									End Site
									{
										OFFSET 0.000000 0.000000 0.100006
									}
								}
							}
						}
					}
				}
			}
		}
	}
	JOINT RightUpLeg
	{
		OFFSET -11.289948 0.000000 0.000000
		CHANNELS 6 Xposition Yposition Zposition Zrotation Yrotation Xrotation
		JOINT RightLeg
		{
			OFFSET 0.000000 0.000000 -38.200329
			CHANNELS 6 Xposition Yposition Zposition Zrotation Yrotation Xrotation
			JOINT RightFoot
			{
				OFFSET 0.000000 0.000000 -39.900856
				CHANNELS 6 Xposition Yposition Zposition Zrotation Yrotation Xrotation
				JOINT RightToeBase
				{
					OFFSET 0.000000 -15.261658 0.000001
					CHANNELS 6 Xposition Yposition Zposition Zrotation Yrotation Xrotation
					JOINT RightToeBaseEnd
					{
						OFFSET 0.000000 -7.370728 0.000000
						CHANNELS 6 Xposition Yposition Zposition Zrotation Yrotation Xrotation
						End Site
						{
							OFFSET 0.000000 0.000000 0.100000
						}
					}
				}
				JOINT RightLegEnd
				{
					OFFSET 0.000000 0.000000 0.000000
					CHANNELS 6 Xposition Yposition Zposition Zrotation Yrotation Xrotation
					End Site
					{
						OFFSET 0.000000 0.000000 0.100000
					}
				}
			}
			JOINT RightUpLegEnd
			{
				OFFSET 0.000000 0.000000 0.000000
				CHANNELS 6 Xposition Yposition Zposition Zrotation Yrotation Xrotation
				End Site
				{
					OFFSET 0.000000 0.000000 0.099998
				}
			}
		}
	}
	JOINT LeftUpLeg
	{
		OFFSET 11.315674 0.000000 0.000000
		CHANNELS 6 Xposition Yposition Zposition Zrotation Yrotation Xrotation
		JOINT LeftLeg
		{
			OFFSET 0.000000 0.000000 -38.200329
			CHANNELS 6 Xposition Yposition Zposition Zrotation Yrotation Xrotation
			JOINT LeftFoot
			{
				OFFSET 0.000000 0.000000 -39.900856
				CHANNELS 6 Xposition Yposition Zposition Zrotation Yrotation Xrotation
				JOINT LeftToeBase
				{
					OFFSET 0.000000 -15.261658 0.000001
					CHANNELS 6 Xposition Yposition Zposition Zrotation Yrotation Xrotation
					JOINT LeftToeBaseEnd
					{
						OFFSET 0.000000 -7.539978 0.000000
						CHANNELS 6 Xposition Yposition Zposition Zrotation Yrotation Xrotation
						End Site
						{
							OFFSET 0.000000 0.000000 0.100000
						}
					}
				}
				JOINT LeftLegEnd
				{
					OFFSET 0.000000 0.000000 0.000000
					CHANNELS 6 Xposition Yposition Zposition Zrotation Yrotation Xrotation
					End Site
					{
						OFFSET 0.000000 0.000000 0.100000
					}
				}
			}
			JOINT LeftUpLegEnd
			{
				OFFSET 0.000000 0.000000 0.000000
				CHANNELS 6 Xposition Yposition Zposition Zrotation Yrotation Xrotation
				End Site
				{
					OFFSET 0.000000 0.000000 0.099998
				}
			}
		}
	}
}
MOTION
Frames: 2
Frame Time: 0.016667
17.416138 -12.066528 88.515022 42.404236 1.244154 -6.639259 0.000018 2.080090 8.814241 -0.932854 -0.398953 11.110003 -0.000011 -0.000014 8.844154 -0.585919 0.901897 6.800383 -0.000001 -0.000023 11.682273 -3.755352 2.146622 8.331781 0.000010 -0.000010 11.746695 -2.488795 3.523929 2.805786 0.000038 -0.000008 17.658258 -17.328569 -16.484359 0.150855 0.000010 0.000002 5.101513 -12.726043 -0.329674 -9.380187 -0.000007 0.000000 5.101490 0.220959 -4.614554 -16.856680 -0.000002 -0.000001 11.655046 0.000000 0.000000 -0.000000 -2.625385 0.000001 11.175235 6.648947 -90.896185 -0.085213 0.000046 -0.000027 10.434708 65.914734 -29.500543 -34.315168 0.000000 0.000000 29.628387 20.743517 1.563104 112.663240 -0.000054 0.000023 22.857590 30.451388 -19.277178 21.894532 -2.867313 -2.944275 3.959579 31.533836 -21.063494 45.970851 0.000008 -0.000023 3.350433 -21.149568 10.702792 -36.709289 -0.000011 -0.000008 3.756508 -13.957278 8.915263 -25.015681 0.000003 -0.000000 3.147312 -0.000001 0.000000 0.000001 -0.086761 -2.345261 10.030899 -19.907616 -40.419424 35.947460 -0.000019 0.000018 4.061089 -0.923425 -31.786232 4.996348 0.000017 0.000010 3.248856 -1.423424 -31.786235 4.996347 -0.000009 -0.000006 2.639698 0.000001 0.000002 -0.000000 0.104073 -0.006767 9.502930 -19.496201 -52.940445 34.518386 0.000010 -0.000020 4.568727 -0.372608 -39.203404 2.450020 -0.000031 0.000017 3.654953 -0.872612 -39.203380 2.450018 0.000003 0.000002 2.741244 -0.000000 0.000000 0.000000 0.086746 2.267452 8.921715 -29.574388 -78.765270 46.297922 0.000051 -0.000004 4.061098 1.633853 -55.156294 -5.040421 0.000004 -0.000031 3.654922 2.633852 -55.156257 -5.040417 0.000000 0.000012 2.741237 -0.000002 0.000002 -0.000000 -0.173482 4.467251 7.976989 94.834281 -87.227451 -83.728489 -0.000031 -0.000072 3.350410 9.114420 -59.545487 -19.304717 -0.000004 -0.000011 2.842751 11.114396 -59.545453 -19.304696 0.000037 -0.000004 2.639694 0.000000 -0.000000 -0.000000 0.000017 0.000008 0.000015 -0.000002 -0.000002 -0.000000 0.000006 -0.000003 0.000010 0.000001 -0.000003 0.000002 2.625387 -0.000000 11.175200 -4.266844 86.125250 0.110334 0.000023 -0.000002 10.813635 -0.083438 77.428466 -34.247142 0.000023 0.000015 28.724785 -16.599460 0.952995 44.955707 0.644289 0.328838 25.716208 -28.025632 -9.337333 -0.648569 2.867313 -2.944260 3.959564 -31.961580 24.277149 41.545647 0.000008 0.000000 3.350388 28.281921 -11.021064 -48.094029 -0.000031 -0.000008 3.756516 18.704751 -10.267634 -32.774171 -0.000002 0.000009 3.100027 -0.000002 -0.000000 0.000001 0.086754 -2.345309 10.030870 2.225871 66.829569 -6.102479 -0.000010 -0.000050 4.061115 -3.329390 47.242281 -8.742561 0.000040 -0.000021 3.248882 -3.829382 47.242250 -8.742563 0.000001 0.000017 2.639730 -0.000001 0.000000 -0.000000 -0.104103 -0.006790 9.502953 15.246867 67.311439 8.940249 0.000018 0.000003 4.568756 -0.983265 47.968900 -3.333136 0.000015 -0.000032 3.654985 -1.483262 47.968897 -3.333134 0.000015 -0.000008 2.741263 0.000001 -0.000003 0.000000 -0.086784 2.267424 8.921700 58.815223 73.120775 59.025743 -0.000006 0.000017 4.061098 1.893254 56.753100 5.353451 -0.000006 0.000007 3.655006 2.893200 56.752919 5.353382 0.000010 0.000001 2.741241 -0.000000 0.000000 0.000000 0.173513 4.467186 7.976974 81.649707 66.975100 92.182801 0.000023 -0.000034 3.350388 9.709988 60.380505 19.992679 0.000019 -0.000004 2.842758 11.710002 60.380498 19.992684 -0.000030 0.000006 2.639708 -0.000001 -0.000000 0.000000 -0.000009 0.000029 -0.000004 0.000004 0.000000 -0.000001 0.000001 -0.000006 0.000019 0.000001 0.000001 -0.000001 -11.289924 0.000011 0.000015 -13.143256 13.549011 12.521052 0.000040 0.000040 -38.200317 -1.119272 0.423155 20.707846 0.000035 0.000045 -39.900864 -29.638335 -1.907985 39.173242 0.000011 -15.261676 -0.000054 3.293342 -5.012790 -39.632258 0.000022 -7.370792 -0.000001 0.000000 -0.000002 -0.000000 0.000033 0.000069 -0.000000 -0.000001 -0.000002 -0.000002 0.000033 0.000047 -0.000002 0.000002 0.000003 0.000002 11.315681 0.000026 -0.000002 -22.503452 2.195929 -4.409412 -0.000002 0.000047 -38.200325 0.532647 -0.145192 15.246739 -0.000001 0.000083 -39.900833 -10.766739 -3.977474 21.173513 0.000012 -15.261644 0.000005 -0.840029 0.473941 -21.277176 0.000013 -7.540044 0.000001 0.000001 0.000000 -0.000000 0.000002 0.000115 -0.000000 0.000001 0.000000 0.000000 -0.000028 0.000058 -0.000005 0.000000 0.000000 -0.000000 
17.470520 -11.792542 88.415855 36.926970 1.515996 -8.248349 -0.000005 2.080042 8.814240 -0.705787 -1.074279 11.722818 -0.000007 0.000013 8.844130 -0.714110 -0.390934 7.363298 0.000029 -0.000002 11.682270 -0.315175 3.655913 9.365172 0.000013 -0.000017 11.746696 -0.913841 4.852063 2.815122 0.000034 -0.000006 17.658257 -17.285943 -15.763312 -0.065004 0.000020 0.000000 5.101501 -13.594945 -0.517077 -9.707512 -0.000005 -0.000016 5.101501 0.259566 -5.094250 -16.676235 -0.000001 -0.000002 11.655065 0.000000 0.000000 -0.000000 -2.625392 0.000006 11.175216 9.860259 -89.411855 -0.057721 0.000061 -0.000008 10.434708 56.742524 -35.552716 -25.294031 0.000008 0.000000 29.628433 24.120285 1.759798 102.287205 -0.000093 0.000031 22.857590 26.696028 -15.921548 16.424068 -2.867325 -2.944275 3.959579 31.513417 -20.692552 46.493945 -0.000046 0.000008 3.350410 -20.319439 10.574209 -35.376412 0.000004 0.000008 3.756493 -13.413382 8.714980 -24.113184 0.000009 0.000003 3.147340 0.000001 0.000000 -0.000003 -0.086750 -2.345276 10.030914 -18.909438 -38.479319 36.328922 -0.000044 0.000012 4.061096 -0.791397 -30.459345 4.740932 0.000004 0.000006 3.248871 -1.291400 -30.459266 4.740928 0.000004 -0.000010 2.639690 0.000000 -0.000001 -0.000000 0.104088 -0.006844 9.502968 -18.497073 -51.383230 34.384251 0.000006 0.000007 4.568735 -0.311445 -38.063886 2.352057 0.000007 0.000016 3.655003 -0.811447 -38.063849 2.352059 0.000005 0.000000 2.741241 0.000000 -0.000001 -0.000000 0.086761 2.267429 8.921741 -25.681706 -77.295311 42.858996 0.000029 -0.000009 4.061079 1.457778 -53.973381 -4.824324 0.000016 -0.000070 3.654985 2.457787 -53.973384 -4.824316 0.000013 0.000001 2.741246 0.000001 0.000002 0.000001 -0.173482 4.467186 7.976998 60.909312 -86.827885 -49.570385 -0.000008 0.000002 3.350433 8.342472 -58.379908 -18.403847 -0.000008 -0.000023 2.842751 10.342492 -58.379970 -18.403876 -0.000046 -0.000004 2.639687 0.000001 0.000000 -0.000001 0.000011 0.000005 0.000023 -0.000001 0.000001 0.000001 -0.000000 -0.000029 -0.000012 0.000003 -0.000002 -0.000000 2.625389 0.000006 11.175201 -4.740401 87.160331 0.124873 -0.000008 0.000004 10.813629 0.737274 76.438115 -31.750151 0.000011 0.000000 28.724796 -17.772617 1.087855 44.236062 0.644360 0.328817 25.716148 -24.759866 -9.776167 -1.292950 2.867352 -2.944244 3.959564 -31.961621 24.277177 41.545585 -0.000008 0.000015 3.350410 28.281918 -11.021096 -48.093968 -0.000031 0.000000 3.756508 18.704750 -10.267632 -32.774181 0.000001 0.000012 3.099999 -0.000002 0.000000 -0.000002 0.086784 -2.345308 10.030899 2.286399 67.052056 -6.088126 0.000015 -0.000019 4.061096 -3.364812 47.398050 -8.790762 0.000019 -0.000032 3.248863 -3.864822 47.398036 -8.790757 0.000018 -0.000021 2.639711 0.000002 -0.000000 -0.000002 -0.104088 -0.006783 9.502956 15.204020 67.255671 8.764617 0.000028 -0.000004 4.568743 -0.980230 47.934128 -3.329036 0.000012 -0.000010 3.655006 -1.480237 47.934046 -3.329061 0.000010 0.000002 2.741238 -0.000000 0.000000 -0.000001 -0.086742 2.267433 8.921707 56.044824 72.608982 55.464619 -0.000008 -0.000017 4.061136 1.773333 56.035060 5.209469 -0.000034 -0.000030 3.654982 2.773312 56.035080 5.209455 -0.000005 0.000004 2.741253 -0.000001 -0.000001 -0.000000 0.173527 4.467182 7.976961 78.169097 66.677263 87.328033 0.000008 -0.000019 3.350395 8.918134 59.258455 19.076688 0.000000 0.000023 2.842743 10.918162 59.258434 19.076708 0.000002 -0.000002 2.639732 0.000000 0.000000 -0.000001 0.000030 -0.000010 0.000014 0.000000 0.000001 -0.000001 0.000030 -0.000001 0.000009 0.000000 0.000001 0.000000 -11.289930 0.000010 -0.000008 -10.485265 13.855989 11.906980 -0.000028 0.000111 -38.200317 -0.859033 0.350449 22.192188 0.000089 0.000000 -39.900810 -27.894141 -1.373738 37.949163 -0.000011 -15.261648 -0.000006 2.937951 -4.959330 -38.853408 0.000022 -7.370792 0.000000 0.000000 -0.000002 -0.000000 0.000033 0.000078 -0.000001 -0.000002 -0.000002 -0.000002 0.000028 0.000062 -0.000003 -0.000000 -0.000002 -0.000001 11.315619 0.000049 0.000000 -19.119518 2.352692 -2.903397 -0.000053 -0.000010 -38.200325 0.446279 -0.133994 16.712074 0.000007 0.000036 -39.900837 -8.305790 -4.277143 19.757026 -0.000004 -15.261684 0.000027 -0.824303 0.385274 -20.824762 0.000006 -7.539979 0.000002 0.000000 -0.000000 0.000000 -0.000015 0.000122 0.000001 -0.000000 0.000000 0.000001 -0.000020 0.000051 0.000000 0.000001 -0.000000 -0.000000 
